<?xml version="1.0" encoding="utf-8"?>
<svg height="2500" preserveAspectRatio="xMidYMid" width="2500" viewBox="0 -30.632388516510233 255.324 285.95638851651023" xmlns="http://www.w3.org/2000/svg" xmlns:xlink="http://www.w3.org/1999/xlink">
  <defs>
    <linearGradient id="paint0_linear" x1="36.7444" y1="44.6477" x2="15.6073" y2="22.5193" gradientUnits="userSpaceOnUse" gradientTransform="matrix(1.970251, 0, 0, 1.970251, 97.97453, 86.17403)">
      <stop offset="0.0013" stop-color="#FFCB4B"/>
      <stop offset="1" stop-color="#FFD748"/>
    </linearGradient>
    <linearGradient id="paint1_linear" x1="30.982" y1="65.8695" x2="33.5627" y2="27.7018" gradientUnits="userSpaceOnUse" gradientTransform="matrix(1.970251, 0, 0, 1.970251, 97.97453, 86.17403)">
      <stop stop-color="#FFBC47" stop-opacity="0"/>
      <stop offset="1" stop-color="#C86F34"/>
    </linearGradient>
    <linearGradient id="paint2_linear" x1="49.6394" y1="65.8499" x2="49.8775" y2="71.564" gradientUnits="userSpaceOnUse" gradientTransform="matrix(1.970251, 0, 0, 1.970251, 97.97453, 86.17403)">
      <stop offset="0.0013" stop-color="#FFCB4B"/>
      <stop offset="1" stop-color="#FFD748"/>
    </linearGradient>
    <linearGradient id="paint3_linear" x1="52.4928" y1="79.8971" x2="48.5011" y2="55.4651" gradientUnits="userSpaceOnUse" gradientTransform="matrix(1.970251, 0, 0, 1.970251, 97.97453, 86.17403)">
      <stop stop-color="#FFBC47" stop-opacity="0"/>
      <stop offset="1" stop-color="#C86F34"/>
    </linearGradient>
    <linearGradient id="paint4_linear" x1="46.2975" y1="80.0284" x2="44.8445" y2="58.1527" gradientUnits="userSpaceOnUse" gradientTransform="matrix(1.970251, 0, 0, 1.970251, 97.97453, 86.17403)">
      <stop stop-color="#FFBC47" stop-opacity="0"/>
      <stop offset="1" stop-color="#C86F34"/>
    </linearGradient>
    <linearGradient id="paint5_linear" x1="2.95646" y1="52.1253" x2="15.0108" y2="62.987" gradientUnits="userSpaceOnUse" gradientTransform="matrix(1.970251, 0, 0, 1.970251, 97.97453, 86.17403)">
      <stop offset="0.0013" stop-color="#0097D4"/>
      <stop offset="0.2368" stop-color="#0294D6"/>
      <stop offset="0.4442" stop-color="#0989DB"/>
      <stop offset="0.6411" stop-color="#1477E4"/>
      <stop offset="0.8304" stop-color="#245EF0"/>
      <stop offset="1" stop-color="#3640FF"/>
    </linearGradient>
    <linearGradient id="paint6_linear" x1="5.57565" y1="53.6735" x2="14.3304" y2="62.3406" gradientUnits="userSpaceOnUse" gradientTransform="matrix(1.970251, 0, 0, 1.970251, 97.97453, 86.17403)">
      <stop offset="0.0013" stop-color="#0097D4"/>
      <stop offset="0.2368" stop-color="#0294D6"/>
      <stop offset="0.4442" stop-color="#0989DB"/>
      <stop offset="0.6411" stop-color="#1477E4"/>
      <stop offset="0.8304" stop-color="#245EF0"/>
      <stop offset="1" stop-color="#3640FF"/>
    </linearGradient>
    <linearGradient id="paint7_linear" x1="9.11672" y1="59.0921" x2="14.7181" y2="62.8396" gradientUnits="userSpaceOnUse" gradientTransform="matrix(1.970251, 0, 0, 1.970251, 97.97453, 86.17403)">
      <stop stop-color="#0097D4" stop-opacity="0"/>
      <stop offset="0.3342" stop-color="#029AD7" stop-opacity="0.3342"/>
      <stop offset="0.6287" stop-color="#08A3E2" stop-opacity="0.6287"/>
      <stop offset="0.9072" stop-color="#13B2F4" stop-opacity="0.9072"/>
      <stop offset="1" stop-color="#17B9FC"/>
    </linearGradient>
    <linearGradient id="paint8_linear" x1="32.2527" y1="67.5478" x2="32.4942" y2="73.3432" gradientUnits="userSpaceOnUse" gradientTransform="matrix(1.970251, 0, 0, 1.970251, 97.97453, 86.17403)">
      <stop offset="0.0013" stop-color="#FFCB4B"/>
      <stop offset="1" stop-color="#FFD748"/>
    </linearGradient>
    <linearGradient id="paint9_linear" x1="32.7433" y1="86.267" x2="31.7774" y2="53.4267" gradientUnits="userSpaceOnUse" gradientTransform="matrix(1.970251, 0, 0, 1.970251, 97.97453, 86.17403)">
      <stop stop-color="#FFBC47" stop-opacity="0"/>
      <stop offset="1" stop-color="#C86F34"/>
    </linearGradient>
    <linearGradient id="paint10_linear" x1="30.6825" y1="69.6277" x2="29.1431" y2="60.2103" gradientUnits="userSpaceOnUse" gradientTransform="matrix(1.970251, 0, 0, 1.970251, 97.97453, 86.17403)">
      <stop stop-color="#FFBC47" stop-opacity="0"/>
      <stop offset="1" stop-color="#C86F34"/>
    </linearGradient>
    <linearGradient id="paint11_linear" x1="26.4771" y1="67.7886" x2="26.7186" y2="73.5839" gradientUnits="userSpaceOnUse" gradientTransform="matrix(1.970251, 0, 0, 1.970251, 97.97453, 86.17403)">
      <stop offset="0.0013" stop-color="#FFCB4B"/>
      <stop offset="1" stop-color="#FFD748"/>
    </linearGradient>
    <linearGradient id="paint12_linear" x1="29.1552" y1="79.7921" x2="23.9635" y2="52.6265" gradientUnits="userSpaceOnUse" gradientTransform="matrix(1.970251, 0, 0, 1.970251, 97.97453, 86.17403)">
      <stop stop-color="#FFBC47" stop-opacity="0"/>
      <stop offset="1" stop-color="#C86F34"/>
    </linearGradient>
    <linearGradient id="paint13_linear" x1="25.7504" y1="69.3351" x2="25.2976" y2="61.9098" gradientUnits="userSpaceOnUse" gradientTransform="matrix(1.970251, 0, 0, 1.970251, 97.97453, 86.17403)">
      <stop stop-color="#FFBC47" stop-opacity="0"/>
      <stop offset="1" stop-color="#C86F34"/>
    </linearGradient>
    <linearGradient id="paint14_linear" x1="20.5243" y1="68.0365" x2="20.7657" y2="73.8318" gradientUnits="userSpaceOnUse" gradientTransform="matrix(1.970251, 0, 0, 1.970251, 97.97453, 86.17403)">
      <stop offset="0.0013" stop-color="#FFCB4B"/>
      <stop offset="1" stop-color="#FFD748"/>
    </linearGradient>
    <linearGradient id="paint15_linear" x1="22.6524" y1="73.8218" x2="17.2193" y2="50.9423" gradientUnits="userSpaceOnUse" gradientTransform="matrix(1.970251, 0, 0, 1.970251, 97.97453, 86.17403)">
      <stop stop-color="#FFBC47" stop-opacity="0"/>
      <stop offset="1" stop-color="#C86F34"/>
    </linearGradient>
    <linearGradient id="paint16_linear" x1="20.7933" y1="75.8314" x2="20.0085" y2="62.6108" gradientUnits="userSpaceOnUse" gradientTransform="matrix(1.970251, 0, 0, 1.970251, 97.97453, 86.17403)">
      <stop stop-color="#FFBC47" stop-opacity="0"/>
      <stop offset="1" stop-color="#C86F34"/>
    </linearGradient>
    <linearGradient id="paint17_linear" x1="76.6578" y1="78.1028" x2="10.7359" y2="31.2572" gradientUnits="userSpaceOnUse" gradientTransform="matrix(1.970251, 0, 0, 1.970251, 97.97453, 86.17403)">
      <stop offset="0.0013" stop-color="#FFCB4B"/>
      <stop offset="1" stop-color="#FFD748"/>
    </linearGradient>
    <radialGradient id="paint18_radial" cx="0" cy="0" r="1" gradientUnits="userSpaceOnUse" gradientTransform="matrix(199.881881, 0, 0, 199.881881, 235.980318, 105.204145)">
      <stop stop-color="#FFBC47" stop-opacity="0"/>
      <stop offset="1" stop-color="#FF8900"/>
    </radialGradient>
    <linearGradient id="paint19_linear" x1="38.8561" y1="34.7349" x2="63.2448" y2="46.3256" gradientUnits="userSpaceOnUse" gradientTransform="matrix(1.970251, 0, 0, 1.970251, 97.97453, 86.17403)">
      <stop stop-color="#FFBB47" stop-opacity="0.9686"/>
      <stop offset="0.0027" stop-color="#FFBA47"/>
      <stop offset="1" stop-color="#FFD748" stop-opacity="0"/>
    </linearGradient>
    <linearGradient id="paint20_linear" x1="28.1327" y1="39.9178" x2="29.4005" y2="55.4928" gradientUnits="userSpaceOnUse" gradientTransform="matrix(1.970251, 0, 0, 1.970251, 97.97453, 86.17403)">
      <stop stop-color="#FFBB47" stop-opacity="0.9686"/>
      <stop offset="0.0027" stop-color="#FFBA47"/>
      <stop offset="1" stop-color="#FFD748" stop-opacity="0"/>
    </linearGradient>
    <linearGradient id="paint21_linear" x1="24.8209" y1="46.1003" x2="9.33649" y2="27.356" gradientUnits="userSpaceOnUse" gradientTransform="matrix(1.970251, 0, 0, 1.970251, 97.97453, 86.17403)">
      <stop stop-color="#FFBB47" stop-opacity="0.9686"/>
      <stop offset="0.0027" stop-color="#FFBA47"/>
      <stop offset="1" stop-color="#FFD748" stop-opacity="0"/>
    </linearGradient>
    <radialGradient id="paint22_radial" cx="0" cy="0" r="1" gradientUnits="userSpaceOnUse" gradientTransform="matrix(18.513062, -58.891127, 41.865827, 13.160976, 214.861782, 186.93242)">
      <stop stop-color="#FFBB47" stop-opacity="0.9686"/>
      <stop offset="0.0027" stop-color="#FFBA47"/>
      <stop offset="1" stop-color="#FFD748" stop-opacity="0"/>
    </radialGradient>
    <linearGradient id="paint23_linear" x1="50.5084" y1="54.0358" x2="37.4689" y2="39.8196" gradientUnits="userSpaceOnUse" gradientTransform="matrix(1.970251, 0, 0, 1.970251, 97.97453, 86.17403)">
      <stop stop-color="#FFBB47" stop-opacity="0.9686"/>
      <stop offset="0.0027" stop-color="#FFBA47"/>
      <stop offset="1" stop-color="#FFD748" stop-opacity="0"/>
    </linearGradient>
    <linearGradient id="paint24_linear" x1="13.483" y1="3.21655" x2="26.4017" y2="74.0887" gradientUnits="userSpaceOnUse" gradientTransform="matrix(1.970251, 0, 0, 1.970251, 97.97453, 86.17403)">
      <stop offset="0.3118" stop-color="#FFBC47" stop-opacity="0"/>
      <stop offset="1" stop-color="#FF8900"/>
    </linearGradient>
    <radialGradient id="paint25_radial" cx="0" cy="0" r="1" gradientUnits="userSpaceOnUse" gradientTransform="matrix(219.633636, 0, 0, 219.633636, 193.482205, 140.224103)">
      <stop stop-color="#FFBC47" stop-opacity="0"/>
      <stop offset="1" stop-color="#FF8900"/>
    </radialGradient>
    <linearGradient id="paint26_linear" x1="55.182" y1="30.0905" x2="37.796" y2="77.2681" gradientUnits="userSpaceOnUse" gradientTransform="matrix(1.970251, 0, 0, 1.970251, 97.97453, 86.17403)">
      <stop offset="0.3118" stop-color="#FFBC47" stop-opacity="0"/>
      <stop offset="1" stop-color="#FF8900"/>
    </linearGradient>
    <linearGradient id="paint27_linear" x1="16.8765" y1="51.7827" x2="16.8736" y2="51.7806" gradientUnits="userSpaceOnUse" gradientTransform="matrix(1.970251, 0, 0, 1.970251, 97.97453, 86.174029)">
      <stop offset="0.0013" stop-color="#FFCB4B"/>
      <stop offset="1" stop-color="#FFD748"/>
    </linearGradient>
    <radialGradient id="paint28_radial" cx="0" cy="0" r="1" gradientUnits="userSpaceOnUse" gradientTransform="matrix(-15.420303, 2.857984, -1.451846, -7.833459, 177.844134, 174.395933)">
      <stop stop-color="#FBE07A"/>
      <stop offset="0.2654" stop-color="#FCDF73" stop-opacity="0.7346"/>
      <stop offset="0.6548" stop-color="#FDDB5F" stop-opacity="0.3452"/>
      <stop offset="1" stop-color="#FFD748" stop-opacity="0"/>
    </radialGradient>
    <radialGradient id="paint29_radial" cx="0" cy="0" r="1" gradientUnits="userSpaceOnUse" gradientTransform="matrix(10.552272, -11.661726, 5.969594, 5.401667, 133.152942, 161.411378)">
      <stop stop-color="#FBE07A"/>
      <stop offset="0.2654" stop-color="#FCDF73" stop-opacity="0.7346"/>
      <stop offset="0.6548" stop-color="#FDDB5F" stop-opacity="0.3452"/>
      <stop offset="1" stop-color="#FFD748" stop-opacity="0"/>
    </radialGradient>
    <linearGradient id="paint30_linear" x1="23.4179" y1="21.8505" x2="43.6412" y2="35.373" gradientUnits="userSpaceOnUse" gradientTransform="matrix(1.970251, 0, 0, 1.970251, 97.97453, 86.17403)">
      <stop offset="0.0013" stop-color="#0097D4"/>
      <stop offset="0.2368" stop-color="#0294D6"/>
      <stop offset="0.4442" stop-color="#0989DB"/>
      <stop offset="0.6411" stop-color="#1477E4"/>
      <stop offset="0.8304" stop-color="#245EF0"/>
      <stop offset="1" stop-color="#3640FF"/>
    </linearGradient>
    <radialGradient id="paint31_radial" cx="0" cy="0" r="1" gradientUnits="userSpaceOnUse" gradientTransform="matrix(31.129435, -45.257722, 0.969365, 0.666754, 175.016609, 127.686014)">
      <stop stop-color="white" stop-opacity="0.5"/>
      <stop offset="1" stop-color="white" stop-opacity="0"/>
    </radialGradient>
    <linearGradient id="paint32_linear" x1="21.4949" y1="15.3237" x2="44.4348" y2="30.959" gradientUnits="userSpaceOnUse" gradientTransform="matrix(1.970251, 0, 0, 1.970251, 97.97453, 86.17403)">
      <stop offset="0.0013" stop-color="#0097D4"/>
      <stop offset="0.2368" stop-color="#0294D6"/>
      <stop offset="0.4442" stop-color="#0989DB"/>
      <stop offset="0.6411" stop-color="#1477E4"/>
      <stop offset="0.8304" stop-color="#245EF0"/>
      <stop offset="1" stop-color="#3640FF"/>
    </linearGradient>
  </defs>
  <linearGradient id="a">
    <stop offset="0.18" stop-color="#0052cc"/>
    <stop offset="1" stop-color="#2684ff"/>
  </linearGradient>
  <linearGradient id="b" x1="98.031%" x2="58.888%" y1=".161%" y2="40.766%" xlink:href="#a"/>
  <linearGradient id="c" x1="100.665%" x2="55.402%" y1=".455%" y2="44.727%" xlink:href="#a"/>
  <path d="M 235.883 -12.622 L 121.443 -12.622 C 121.443 15.909 144.572 39.038 173.103 39.038 L 194.184 39.038 L 194.184 59.392 C 194.203 87.897 217.306 111.001 245.811 111.02 L 245.811 -2.694 C 245.811 -8.176 241.367 -12.622 235.883 -12.622 Z" fill="#2684ff" style=""/>
  <path d="M 179.259 44.399 L 64.819 44.399 C 64.837 72.904 87.94 96.008 116.446 96.027 L 137.527 96.027 L 137.527 116.446 C 137.563 144.951 160.682 168.039 189.187 168.039 L 189.187 54.329 C 189.187 48.846 184.742 44.4 179.259 44.4 L 179.259 44.399 Z" fill="url(#b)" style=""/>
  <path d="M 122.601 101.388 L 8.161 101.388 C 8.161 129.919 31.291 153.048 59.821 153.048 L 80.968 153.048 L 80.968 173.401 C 80.987 201.88 104.05 224.974 132.53 225.028 L 132.53 111.317 C 132.53 105.833 128.084 101.388 122.601 101.388 Z" fill="url(#c)" style=""/>
  <path d="M 168.098 169.634 C 163.906 175.838 157.96 179.144 154.816 177.018 C 151.671 174.89 152.526 168.144 156.717 161.94 C 160.909 155.737 166.858 152.429 170.002 154.557 C 173.147 156.685 172.291 163.431 168.098 169.634 Z" fill="url(#paint0_linear)" style=""/>
  <path d="M 168.098 169.634 C 163.906 175.838 157.96 179.144 154.816 177.018 C 151.671 174.89 152.526 168.144 156.717 161.94 C 160.909 155.737 166.858 152.429 170.002 154.557 C 173.147 156.685 172.291 163.431 168.098 169.634 Z" fill="url(#paint1_linear)" style=""/>
  <path d="M 218.975 205.689 C 210.592 205.689 210.233 212.11 200.241 212.11 C 190.25 212.11 184.901 208.002 175.624 202.476 C 167.882 197.863 158.791 198.819 154.016 197.855 L 160.429 200.395 C 160.429 200.395 164.249 208.888 174.319 213.95 C 188.914 221.295 206.203 212.839 213.72 213.351 C 223.075 213.997 234.65 216.039 236.801 215.875 C 235.737 215.03 234.853 205.689 218.975 205.689 Z" fill="url(#paint2_linear)" style=""/>
  <path d="M 218.975 205.689 C 210.592 205.689 210.233 212.11 200.241 212.11 C 190.25 212.11 184.901 208.002 175.624 202.476 C 167.882 197.863 158.791 198.819 154.016 197.855 L 160.429 203.244 C 160.429 203.244 164.249 208.88 174.319 213.95 C 188.914 221.295 206.203 212.839 213.72 213.351 C 223.075 213.997 234.65 216.039 236.801 215.875 C 235.737 215.03 234.853 205.689 218.975 205.689 Z" fill="url(#paint3_linear)" style=""/>
  <path d="M 218.975 205.689 C 210.592 205.689 210.233 212.11 200.241 212.11 C 190.25 212.11 184.901 208.002 175.624 202.473 C 167.882 197.863 158.791 198.817 154.016 200.712 L 160.429 203.25 C 160.429 203.25 162.712 206.582 168.326 210.418 C 169 209.911 169.326 211.783 169.155 210.153 C 167.68 195.999 182.416 213.856 195.614 213.5 C 210.436 213.118 218.975 205.689 218.975 205.689 Z" fill="url(#paint4_linear)" style=""/>
  <path d="M 133.418 185.89 L 117.86 208.35 C 116.507 210.3 112.463 220.401 109.925 226.883 C 109.321 228.435 110.974 229.578 112.207 228.459 C 117.299 223.886 125.22 216.736 127.114 214.756 L 143.644 190.907 C 138.923 190.813 134.915 189.594 133.418 185.89 Z" fill="url(#paint5_linear)" style=""/>
  <path d="M 110.065 228.361 C 110.506 228.973 111.438 229.151 112.207 228.461 C 117.299 223.888 125.22 216.738 127.114 214.759 L 143.644 190.907 C 142.192 190.877 140.833 190.721 139.568 190.442 L 125.236 211.094 C 124.272 212.049 118.427 220.255 110.065 228.361 Z" fill="url(#paint6_linear)" style=""/>
  <path d="M 134.808 188.189 C 133.729 187.445 133.947 187.202 133.418 185.89 L 117.86 208.35 C 116.507 210.3 112.463 220.401 109.925 226.883 C 109.321 228.435 118.675 211.465 119.863 209.742 L 134.808 188.189 Z" fill="url(#paint7_linear)" style=""/>
  <path d="M 153.976 210.153 C 160.164 217.056 165.63 218.833 170.747 218.833 C 175.863 218.833 176.933 216.333 175.863 214.494 C 174.792 212.654 171.703 208.965 166.826 208.25 C 161.95 207.537 157.788 196.475 157.788 196.475 L 151.726 196.355 L 146.018 203.492 L 153.976 210.153 Z" fill="url(#paint8_linear)" style=""/>
  <path d="M 153.976 210.153 C 160.164 217.056 165.63 218.833 170.747 218.833 C 175.863 218.833 176.933 216.333 175.863 214.494 C 174.792 212.654 171.703 208.965 166.826 208.25 C 161.95 207.537 157.788 196.475 157.788 196.475 L 151.726 196.355 L 146.018 203.492 L 153.976 210.153 Z" fill="url(#paint9_linear)" style=""/>
  <path d="M 156.655 211.885 C 154.535 207.902 157.679 204.865 161.941 204.376 C 159.465 200.937 157.781 196.475 157.781 196.475 L 151.718 196.355 L 148.605 200.247 L 148.216 201.356 C 148.216 201.356 159.093 216.465 156.655 211.885 Z" fill="url(#paint10_linear)" style=""/>
  <path d="M 157.781 196.475 C 158.937 198.864 160.096 201.248 161.609 203.414 C 163.108 205.488 164.838 207.793 167.47 208.009 C 170.157 208.553 172.586 210.074 174.38 212.086 C 175.204 213.135 176.212 214.136 176.399 215.603 C 176.484 217.14 175.087 218.119 173.851 218.421 C 175.08 218.01 176.26 216.931 176.048 215.635 C 175.848 214.423 174.815 213.406 173.976 212.467 C 172.168 210.611 169.87 209.174 167.33 208.709 C 166.003 208.577 164.614 207.824 163.673 206.877 C 162.688 205.929 161.857 204.858 161.15 203.709 C 160.444 202.568 159.816 201.388 159.249 200.184 C 158.712 198.964 158.271 197.699 157.781 196.475 Z" fill="#804B24" style=""/>
  <path d="M 143.386 211.226 C 145.172 217.412 152.548 221.807 157.656 221.333 C 160.856 221.037 161.702 216.1 157.896 212.295 C 154.092 208.492 151.702 201.923 151.702 201.923 L 148.262 191.249 L 142.913 204.929 L 139.465 212.303 L 143.386 211.226 Z" fill="url(#paint11_linear)" style=""/>
  <path d="M 143.386 211.226 C 145.172 217.412 152.548 221.807 157.656 221.333 C 160.856 221.037 161.702 216.1 157.896 212.295 C 154.092 208.492 151.702 201.923 151.702 201.923 L 148.262 191.249 L 142.913 204.929 L 139.465 212.303 L 143.386 211.226 Z" fill="url(#paint12_linear)" style=""/>
  <path d="M 154.551 207.801 C 152.758 204.765 151.702 201.916 151.702 201.916 L 149.954 196.488 L 146.081 196.823 L 142.913 204.92 L 141.104 208.786 L 142.309 211.518 L 143.388 211.223 C 144.201 214.042 146.198 216.456 148.581 218.236 C 146.074 213.671 150.002 208.438 154.551 207.801 Z" fill="url(#paint13_linear)" style=""/>
  <path d="M 160.405 218.127 C 160.365 216.054 159.311 214.206 157.937 212.786 C 156.446 211.333 155.296 209.547 154.295 207.753 C 152.292 204.144 150.654 200.355 149.334 196.466 C 151.104 200.168 152.867 203.873 154.884 207.412 C 155.94 209.15 156.943 210.921 158.387 212.359 C 159.808 213.918 160.716 216.062 160.405 218.127 Z" fill="#804B24" style=""/>
  <path d="M 130.577 209.539 C 130.577 215.068 137.556 221.333 141.725 221.333 C 145.894 221.333 146.01 215.743 145.297 213.6 C 144.582 211.458 143.533 206.745 143.533 206.745 L 139.948 204.44 L 130.577 209.539 Z" fill="url(#paint14_linear)" style=""/>
  <path d="M 130.577 209.539 C 130.577 215.068 137.556 221.333 141.725 221.333 C 145.894 221.333 146.01 215.743 145.297 213.6 C 144.582 211.458 143.533 206.745 143.533 206.745 L 139.948 204.44 L 130.577 209.539 Z" fill="url(#paint15_linear)" style=""/>
  <path d="M 144.241 209.773 C 143.845 208.15 143.525 206.745 143.525 206.745 L 139.939 204.44 L 130.577 209.539 C 130.577 212.926 133.194 216.574 136.182 218.904 C 135.344 214.215 141.08 211.101 144.241 209.773 Z" fill="url(#paint16_linear)" style=""/>
  <path d="M 145.071 219.027 C 145.453 217.646 145.421 216.232 145.242 214.874 C 145.018 213.577 144.427 212.171 144.171 210.789 C 143.489 208.026 142.936 205.232 142.509 202.412 C 143.365 205.129 144.101 207.877 144.815 210.626 C 145.133 212.033 145.662 213.274 145.863 214.795 C 145.995 216.256 145.778 217.771 145.071 219.027 Z" fill="#804B24" style=""/>
  <path d="M 123.287 201.116 C 123.433 207.389 129.234 209.974 133.867 209.974 C 138.503 209.974 148.31 204.417 151.695 201.916 C 155.087 199.416 166.338 196.947 175.615 202.473 C 184.891 208.002 190.243 212.11 200.233 212.11 C 210.225 212.11 210.583 205.689 218.967 205.689 C 236.63 205.689 235.737 217.288 237.166 215.859 C 238.595 214.431 243.764 202.481 243.764 191.062 C 243.764 183.507 241.963 179.5 240.751 175.735 C 240.218 174.074 238.586 173.097 236.854 173.306 C 224.434 174.803 206.034 159.54 193.456 153.415 C 179.901 146.815 168.838 139.859 160.629 139.859 C 152.423 139.859 125.841 154.665 122.448 158.058 C 119.055 161.451 117.634 165.372 117.634 170.193 C 117.634 175.014 114.598 186.425 114.598 196.24 C 114.598 204.089 116.539 207.024 119.319 205.338 C 120.019 204.912 120.772 204.197 121.555 203.197 C 121.804 202.909 123.293 201.581 123.287 201.116 C 123.287 197.367 126.197 192.53 131.229 188.189 C 131.95 187.569 132.541 185.821 133.038 184.462 C 133.038 184.462 134.467 177.683 135.895 174.587 C 137.323 171.497 139.467 169.594 142.797 168.881 C 152.284 166.846 159.449 154.486 164.209 157.343 C 168.97 160.199 163.97 171.155 154.451 174.486 C 144.933 177.815 139.939 181.604 133.518 186.365 C 127.098 191.122 123.287 196.831 123.287 201.116 Z" fill="url(#paint17_linear)" style=""/>
  <path d="M 236.854 173.306 C 224.434 174.805 206.034 159.542 193.456 153.415 C 183.285 148.461 174.519 143.315 167.315 141.047 L 164.202 157.343 C 165.165 157.918 165.685 158.702 165.849 159.603 C 165.986 160.115 166.018 160.683 165.994 161.28 C 165.994 161.343 165.986 161.404 165.986 161.466 C 165.949 162.072 165.833 162.708 165.638 163.368 C 176.172 151.885 182.805 150.885 188.891 153.369 C 199.262 157.599 210.839 174.959 224.931 174.959 C 238.959 174.959 242.671 183.251 242.702 183.304 C 242.104 180.224 241.358 177.606 240.762 175.743 C 240.489 174.914 239.954 174.253 239.262 173.826 C 238.586 173.414 237.765 173.229 236.918 173.314 C 236.894 173.314 236.878 173.306 236.854 173.306 Z" fill="url(#paint18_radial)" style=""/>
  <path d="M 193.464 153.415 C 185.785 149.68 178.913 145.829 172.897 143.191 L 166.414 157.599 C 168.743 155.598 173.51 154.277 183.293 156.807 C 203.277 161.979 214.511 189.633 224.682 189.222 C 233.85 188.849 233.485 182.56 243.128 185.766 C 242.492 181.612 241.514 178.08 240.762 175.735 C 240.498 174.906 239.954 174.246 239.262 173.818 C 238.571 173.391 237.733 173.205 236.862 173.306 C 224.434 174.803 206.034 159.54 193.464 153.415 Z" fill="url(#paint19_linear)" style=""/>
  <path d="M 164.202 157.343 C 168.962 160.199 163.961 171.156 154.443 174.486 C 147.261 177.002 142.648 179.78 138.06 183.035 C 144.225 179.354 151.251 178.871 156.593 176.264 C 169.371 170.029 169.495 155.986 169.495 155.986 L 164.202 157.343 Z" fill="url(#paint20_linear)" style=""/>
  <path d="M 160.629 139.859 C 152.423 139.859 125.841 154.665 122.448 158.058 C 119.055 161.451 117.634 165.372 117.634 170.193 C 117.634 175.014 114.598 186.425 114.598 196.24 C 114.598 197.42 114.645 198.476 114.73 199.44 C 116.75 189.128 118.596 164.393 124.196 159.619 C 131.09 153.733 155.002 139.814 165.521 141.42 C 166.562 141.575 167.362 141.499 168.053 141.303 C 165.374 140.394 162.889 139.859 160.629 139.859 Z" fill="url(#paint21_linear)" style=""/>
  <path d="M 240.762 175.738 C 240.225 174.074 238.595 173.097 236.862 173.306 C 226.274 174.581 211.351 162.911 199.388 156.482 C 199.349 164.014 200.017 171.714 198.882 178.523 C 193.913 194.673 181.918 198.926 167.362 199.523 C 170.126 199.984 172.951 200.891 175.624 202.484 C 184.901 208.009 190.25 212.118 200.241 212.118 C 210.233 212.118 210.592 205.697 218.975 205.697 C 236.638 205.697 235.745 217.295 237.174 215.868 C 238.602 214.439 243.772 202.491 243.772 191.069 C 243.772 183.507 241.971 179.503 240.762 175.738 Z" fill="url(#paint22_radial)" style=""/>
  <path d="M 165.474 158.586 C 165.585 158.766 165.653 158.958 165.717 159.154 L 166.414 157.601 C 166.05 157.918 165.73 158.245 165.474 158.586 Z" fill="url(#paint23_linear)" style=""/>
  <path d="M 133.038 184.462 C 133.038 184.462 134.467 177.683 135.895 174.587 C 137.323 171.497 139.467 169.594 142.797 168.881 C 144.421 168.529 145.965 167.872 147.446 167.049 C 154.087 160.427 162.462 144.976 159.861 147.748 C 143.341 165.325 143.401 161.396 136.447 168.352 C 129.49 175.309 131.538 183.072 127.882 186.73 C 124.7 189.913 118.604 197.499 119.327 205.324 C 120.027 204.905 120.779 204.197 121.572 203.197 C 121.811 202.909 123.308 201.588 123.293 201.116 C 123.293 201.116 123.023 198.725 125.22 195.138 C 125.236 195.114 125.258 195.09 125.273 195.067 C 126.632 192.786 128.65 190.425 131.237 188.197 C 131.478 187.862 131.711 187.506 131.95 187.157 C 132.355 186.357 132.719 185.34 133.038 184.462 Z" fill="url(#paint24_linear)" style=""/>
  <path d="M 237.174 215.859 C 237.725 215.307 238.834 213.174 239.992 210.121 C 228.579 195.767 214.822 199.479 210.707 203.02 C 206.422 206.706 199.17 210.985 190.249 207.305 C 181.328 203.617 178.237 191.249 165.986 191.249 C 153.735 191.249 144.933 198.919 139.224 201.776 C 134.234 204.276 129.318 204.112 123.449 199.09 L 123.287 201.123 C 123.441 207.753 129.599 209.982 133.867 209.982 C 138.503 209.982 148.31 204.424 151.695 201.923 C 155.087 199.423 166.338 196.955 175.615 202.484 C 184.891 208.009 190.243 212.118 200.233 212.118 C 210.225 212.118 210.583 205.697 218.967 205.697 C 236.638 205.689 235.745 217.288 237.174 215.859 Z" fill="url(#paint25_radial)" style=""/>
  <path d="M 237.174 215.859 C 237.647 215.386 238.533 213.71 239.503 211.326 C 238.275 209.065 235.994 207.188 232.244 205.992 C 212.081 199.572 212.081 210.277 196.918 210.713 C 181.757 211.154 176.933 195.107 168.371 195.107 C 149.481 195.107 139.916 208.989 126.664 207.717 C 128.814 209.298 131.594 209.959 133.867 209.959 C 138.503 209.959 148.31 204.4 151.695 201.9 C 155.087 199.4 166.338 196.931 175.615 202.459 C 184.891 207.988 190.243 212.094 200.233 212.094 C 210.225 212.094 210.583 205.673 218.967 205.673 C 236.638 205.689 235.745 217.288 237.174 215.859 Z" fill="url(#paint26_linear)" style=""/>
  <path d="M 131.229 188.189 C 131.221 188.197 131.214 188.205 131.206 188.205 C 131.221 188.197 131.221 188.197 131.229 188.189 Z" fill="url(#paint27_linear)" style=""/>
  <path d="M 170.266 168.804 C 174.728 167.972 177.019 166.008 180.637 165.34 C 184.255 164.672 200.553 163.136 201.933 170.961 C 203.315 178.788 191.919 183.259 185.249 186.568 C 178.58 189.874 161.453 188.166 159.264 181.956 C 157.075 175.745 163.246 170.108 170.266 168.804 Z" fill="url(#paint28_radial)" style=""/>
  <path d="M 140.917 164.728 C 138.736 167.141 135.188 166.761 133.426 168.709 C 131.662 170.658 125.646 189.804 121.455 185.892 C 117.263 181.979 121.22 168.345 123.573 163.555 C 125.925 158.763 145.996 145.923 149.946 148.548 C 153.891 151.172 144.342 160.939 140.917 164.728 Z" fill="url(#paint29_radial)" style=""/>
  <path d="M 201.647 104.978 C 201.065 103.982 200.07 102.617 198.618 101.608 C 197.174 100.605 195.584 100.178 194.464 99.993 C 193.635 99.854 192.749 100.265 192.212 101.041 L 133.411 185.892 C 133.465 186.032 133.55 186.14 133.611 186.272 C 133.985 185.992 134.326 185.689 134.683 185.401 L 134.49 185.636 C 140.453 181.216 145.421 177.638 154.443 174.479 C 154.731 174.378 154.995 174.23 155.272 174.121 L 158.86 168.944 L 201.461 107.47 C 202.01 106.691 202.082 105.707 201.647 104.978 Z" fill="url(#paint30_linear)" style=""/>
  <path d="M 140.133 180.495 L 193.067 104.014 C 194.544 101.577 195.188 100.11 194.473 99.993 C 193.641 99.854 192.756 100.265 192.22 101.041 L 133.418 185.892 C 133.488 186.062 133.518 186.177 133.574 186.318 C 135.926 184.572 137.991 182.536 140.133 180.495 Z" fill="url(#paint31_radial)" style=""/>
  <path d="M 201.468 107.47 C 201.53 107.376 201.569 107.267 201.623 107.167 C 201.786 106.855 201.903 106.531 201.926 106.203 C 201.957 105.77 201.863 105.343 201.647 104.978 C 201.638 104.961 201.63 104.946 201.623 104.938 C 201.297 104.379 200.83 103.719 200.241 103.066 L 149.225 176.574 C 150.825 175.861 152.531 175.162 154.451 174.494 C 154.738 174.394 155.002 174.246 155.281 174.138 L 158.868 168.96 L 201.468 107.47 Z" fill="url(#paint32_linear)" style=""/>
  <path d="M 218.975 205.689 C 216.344 205.689 213.773 206.544 211.639 208.057 C 209.504 209.524 207.315 211.117 204.713 211.753 C 199.535 212.903 194.085 212.165 189.178 210.27 C 184.27 208.297 179.908 205.309 175.397 202.693 C 170.932 200.06 165.582 199.144 160.452 199.626 C 157.888 199.859 155.304 200.402 153.007 201.52 C 150.863 202.824 148.627 204.408 146.322 205.605 C 144.016 206.861 141.648 208.018 139.188 208.958 C 136.764 209.906 134.015 210.589 131.385 209.959 C 128.79 209.454 126.22 208.182 124.645 205.968 C 123.076 203.779 122.681 200.814 123.581 198.307 C 125.376 193.251 129.365 189.456 133.518 186.357 C 129.435 189.54 125.546 193.446 123.916 198.407 C 123.076 200.852 123.481 203.647 124.979 205.72 C 126.485 207.809 128.961 209.021 131.47 209.485 C 134.023 210.068 136.579 209.409 138.992 208.453 C 141.415 207.514 143.753 206.341 146.034 205.076 C 148.363 203.841 150.405 202.352 152.711 200.931 C 155.126 199.743 157.749 199.16 160.388 198.911 C 165.653 198.454 171.127 199.431 175.7 202.172 C 180.21 204.835 184.534 207.841 189.355 209.821 C 194.155 211.73 199.565 212.474 204.627 211.403 C 207.183 210.838 209.363 209.33 211.552 207.894 C 213.728 206.434 216.344 205.628 218.975 205.689 Z" fill="#804B24" style=""/>
  <path d="M 165.498 159.378 C 165.706 159.999 165.817 160.651 165.785 161.311 C 165.365 165.325 162.649 168.81 159.535 171.264 C 156.452 173.935 152.26 174.711 148.574 176.574 C 144.822 178.291 141.329 180.519 138.068 183.025 C 141.485 180.751 145.041 178.686 148.766 177.009 C 150.639 176.179 152.548 175.441 154.481 174.782 C 156.452 174.106 158.325 173.111 159.97 171.823 C 163.153 169.205 165.879 165.604 166.25 161.334 C 166.282 160.511 166.165 159.664 165.826 158.895 L 165.498 159.378 Z" fill="#804B24" style=""/>
</svg>